# xmcd
#
# Track frame offsets:
#	150
#	12724
#	34641
#	45956
#	66159
#	86830
#	99241
#	112513
#	128340
#	138846
#	158429
#
# Disc length: 2312 seconds
# Revision: 0
# Processed by: cddbd v1.5.2PL0 Copyright (c) Steve Scherf et al.
# Submitted via: dBpowerAMP V12.0
#
DISCID=7409060b
DTITLE=Remington Ryde - A Storyteller's Memory
DYEAR=2017
DGENRE=Bluegrass
TTITLE0=Days of Grey and Black
TTITLE1=Bed by the Window
TTITLE2=Crazy Heart
TTITLE3=Thirty Years of Farmin'
TTITLE4=Daddy Doesn't Pray Anymore
TTITLE5=Leavin'
TTITLE6=The Voice of My Savior
TTITLE7=A Few Old Memories
TTITLE8=Old Swinging Bridge
TTITLE9=Mr. King
TTITLE10=It's a Cold Cold World
EXTD=
EXTT0=
EXTT1=
EXTT2=
EXTT3=
EXTT4=
EXTT5=
EXTT6=
EXTT7=
EXTT8=
EXTT9=
EXTT10=
PLAYORDER=
